<svg xmlns="http://www.w3.org/2000/svg" xmlns:xlink="http://www.w3.org/1999/xlink" version="1.1" width="1000" height="1000" viewBox="0 0 1000 1000" xml:space="preserve">
<desc>Created with Fabric.js 3.5.0</desc>
<defs>
</defs>
<rect x="0" y="0" width="100%" height="100%" fill="#1f58b2"/>
<g transform="matrix(1.9407 0 0 1.8302 500.007 508.6814)" id="850505">
<g style="" vector-effect="non-scaling-stroke">
		<g transform="matrix(1 0 0 1 70.1785 16.9459)" id="Vector">
<path style="stroke: rgb(0,0,0); stroke-width: 1; stroke-dasharray: none; stroke-linecap: butt; stroke-dashoffset: 0; stroke-linejoin: miter; stroke-miterlimit: 4; is-custom-font: none; font-file-url: none; fill: rgb(103,106,114); fill-rule: nonzero; opacity: 0.15;" transform=" translate(-281.1785, -264.9459)" d="M 392.864 42.9648 H 169.494 C 153.403 42.9648 140.358 55.9988 140.358 72.0771 V 457.814 C 140.358 473.893 153.403 486.927 169.494 486.927 H 392.864 C 408.955 486.927 421.999 473.893 421.999 457.814 V 72.0771 C 421.999 55.9988 408.955 42.9648 392.864 42.9648 Z" stroke-linecap="round"/>
</g>
		<g transform="matrix(1 0 0 1 -165.3315 9.6672)" id="Vector_2">
<path style="stroke: rgb(0,0,0); stroke-width: 1; stroke-dasharray: none; stroke-linecap: butt; stroke-dashoffset: 0; stroke-linejoin: miter; stroke-miterlimit: 4; is-custom-font: none; font-file-url: none; fill: rgb(103,106,114); fill-rule: nonzero; opacity: 0.15;" transform=" translate(-45.6685, -257.6672)" d="M 45.6685 25.9824 C 37.9413 25.9824 30.5306 29.0496 25.0667 34.5092 C 19.6028 39.9688 16.5332 47.3736 16.5332 55.0947 V 440.832 C 16.5332 456.844 17.5044 469.944 33.5288 469.944 L 31.1008 489.352 C 47.1252 489.352 67.5199 456.844 67.5199 440.832 L 74.8037 55.0947 C 74.8037 51.2716 74.0501 47.486 72.5859 43.9539 C 71.1218 40.4218 68.9757 37.2125 66.2702 34.5092 C 63.5647 31.8059 60.3529 29.6615 56.818 28.1985 C 53.2832 26.7354 49.4946 25.9824 45.6685 25.9824 Z" stroke-linecap="round"/>
</g>
		<g transform="matrix(1 0 0 1 40.3165 -0.013)" id="Vector_3">
<path style="stroke: rgb(0,0,0); stroke-width: 1; stroke-dasharray: none; stroke-linecap: butt; stroke-dashoffset: 0; stroke-linejoin: miter; stroke-miterlimit: 4; is-custom-font: none; font-file-url: none; fill: rgb(103,106,114); fill-rule: nonzero; opacity: 1;" transform=" translate(-251.3165, -247.987)" d="M 378.71 24.793 H 123.922 C 111.331 24.793 101.124 34.9921 101.124 47.5733 V 448.401 C 101.124 460.982 111.331 471.181 123.922 471.181 H 378.71 C 391.301 471.181 401.509 460.982 401.509 448.401 V 47.5733 C 401.509 34.9921 391.301 24.793 378.71 24.793 Z" stroke-linecap="round"/>
</g>
		<g transform="matrix(1 0 0 1 -48.2798 0.4778)" id="Vector_4">
<path style="stroke: rgb(0,0,0); stroke-width: 1; stroke-dasharray: none; stroke-linecap: butt; stroke-dashoffset: 0; stroke-linejoin: miter; stroke-miterlimit: 4; is-custom-font: none; font-file-url: none; fill: rgb(104,132,160); fill-rule: nonzero; opacity: 1;" transform=" translate(-162.7201, -248.4778)" d="M 213.173 460.799 C 209.664 464.521 205.308 467.342 200.475 469.023 C 193.715 470.947 186.689 471.766 179.668 471.449 L 153.664 471.619 C 137.421 471.619 116.347 475.573 106.295 462.812 C 99.0115 453.472 101.075 435.786 101.075 423.996 C 101.075 305.428 101.124 186.86 101.221 68.2926 C 101.221 58.8554 98.9629 48.8844 103.94 40.8543 C 113.142 26.0556 126.447 24.6 143.88 24.7698 L 184.208 25.0609 C 185.436 24.9057 186.682 25.0114 187.866 25.3709 C 189.05 25.7304 190.145 26.3358 191.079 27.1473 C 192.827 29.2337 192.269 32.3147 191.565 34.9348 C 183.552 64.8719 168.888 90.7333 155.291 118.196 C 132.056 165.236 130.283 215.358 133.707 266.765 C 135.309 290.831 137.956 315.771 148.007 337.969 C 157.403 358.687 175.224 371.812 193.191 384.67 C 217.252 401.822 238.764 434.04 213.173 460.799 Z" stroke-linecap="round"/>
</g>
		<g transform="matrix(1 0 0 1 131.3275 -0.013)" id="Vector_5">
<path style="stroke: rgb(0,0,0); stroke-width: 1; stroke-dasharray: none; stroke-linecap: butt; stroke-dashoffset: 0; stroke-linejoin: miter; stroke-miterlimit: 4; is-custom-font: none; font-file-url: none; fill: rgb(156,216,237); fill-rule: nonzero; opacity: 1;" transform=" translate(-342.3275, -247.987)" d="M 402.528 51.2366 L 397.673 435.057 C 397.673 455.024 385.776 471.181 370.965 471.181 H 282.127 C 292.13 471.181 311.262 429.939 314.904 422.66 C 346.103 360.166 351.202 285.299 348.701 216.618 C 347.315 186.897 344.382 157.267 339.912 127.85 C 337.15 110.279 335.891 92.5051 336.149 74.7205 C 336.294 69.6016 339.621 24.793 345.448 24.793 H 371.159 C 385.751 24.793 402.528 31.2704 402.528 51.2366 Z" stroke-linecap="round"/>
</g>
		<g transform="matrix(1 0 0 1 -73.288 -1.929)" id="Vector_6">
<path style="stroke: rgb(0,0,0); stroke-width: 1; stroke-dasharray: none; stroke-linecap: butt; stroke-dashoffset: 0; stroke-linejoin: miter; stroke-miterlimit: 4; is-custom-font: none; font-file-url: none; fill: rgb(78,79,80); fill-rule: nonzero; opacity: 1;" transform=" translate(-137.712, -246.071)" d="M 141.354 22.877 H 134.07 V 469.265 H 141.354 V 22.877 Z" stroke-linecap="round"/>
</g>
		<g transform="matrix(1 0 0 1 -79.1395 1.1762)" id="Vector_7">
<path style="stroke: rgb(0,0,0); stroke-width: 1; stroke-dasharray: none; stroke-linecap: butt; stroke-dashoffset: 0; stroke-linejoin: miter; stroke-miterlimit: 4; is-custom-font: none; font-file-url: none; fill: rgb(43,15,43); fill-rule: nonzero; opacity: 0.15;" transform=" translate(-131.8605, -249.1762)" d="M 134.288 25.9824 H 129.433 V 472.37 H 134.288 V 25.9824 Z" stroke-linecap="round"/>
</g>
		<g transform="matrix(1 0 0 1 39.3696 10.577)" id="Vector_8">
<path style="stroke: rgb(0,0,0); stroke-width: 1; stroke-dasharray: none; stroke-linecap: butt; stroke-dashoffset: 0; stroke-linejoin: miter; stroke-miterlimit: 4; is-custom-font: none; font-file-url: none; fill: rgb(255,255,255); fill-rule: nonzero; opacity: 1;" transform=" translate(-250.3696, -258.577)" d="M 401.533 296.095 H 101.124 L 99.2061 221.059 H 401.533 V 296.095 Z" stroke-linecap="round"/>
</g>
		<g transform="matrix(1 0 0 1 39.951 7.9345)" id="Vector_9">
<path style="stroke: rgb(0,0,0); stroke-width: 1; stroke-dasharray: none; stroke-linecap: butt; stroke-dashoffset: 0; stroke-linejoin: miter; stroke-miterlimit: 4; is-custom-font: none; font-file-url: none; fill: rgb(102,138,168); fill-rule: nonzero; opacity: 1;" transform=" translate(-250.951, -255.9345)" d="M 402.527 222.055 L 397.672 292.24 H 99.6906 L 99.375 280.692 H 354.479 C 361.826 280.692 368.872 277.775 374.067 272.584 C 379.263 267.393 382.181 260.352 382.181 253.011 V 219.629 L 402.527 222.055 Z" stroke-linecap="round"/>
</g>
		<g transform="matrix(1 0 0 1 179.97 146.7615)" id="Vector_10">
<path style="stroke: rgb(0,0,0); stroke-width: 1; stroke-dasharray: none; stroke-linecap: butt; stroke-dashoffset: 0; stroke-linejoin: miter; stroke-miterlimit: 4; is-custom-font: none; font-file-url: none; fill: rgb(62,66,80); fill-rule: nonzero; opacity: 1;" transform=" translate(-390.97, -394.7615)" d="M 402.527 318.342 V 435.058 C 402.527 455.024 394.126 471.181 383.735 471.181 H 379.413 V 377.415 C 379.413 352.524 388.639 330.666 402.527 318.342 Z" stroke-linecap="round"/>
</g>
		<g transform="matrix(1 0 0 1 40.2919 -0.0128)" id="Vector_11">
<path style="stroke: rgb(0,0,0); stroke-width: 1; stroke-dasharray: none; stroke-linecap: butt; stroke-dashoffset: 0; stroke-linejoin: miter; stroke-miterlimit: 4; is-custom-font: none; font-file-url: none; fill: rgb(78,79,80); fill-rule: nonzero; opacity: 1;" transform=" translate(-251.2919, -247.9872)" d="M 378.759 474.82 H 123.825 C 116.815 474.814 110.093 472.028 105.136 467.075 C 100.179 462.122 97.3912 455.406 97.3848 448.401 V 47.5737 C 97.3912 40.5688 100.179 33.8526 105.136 28.8994 C 110.093 23.9462 116.815 21.1607 123.825 21.1543 H 378.759 C 385.769 21.1607 392.49 23.9462 397.448 28.8994 C 402.405 33.8526 405.192 40.5688 405.199 47.5737 V 448.425 C 405.186 455.426 402.395 462.136 397.439 467.084 C 392.483 472.032 385.765 474.814 378.759 474.82 Z M 123.825 28.4324 C 118.746 28.4388 113.878 30.4575 110.286 34.0458 C 106.695 37.6341 104.675 42.499 104.669 47.5737 V 448.425 C 104.681 453.496 106.705 458.354 110.295 461.937 C 113.885 465.52 118.751 467.536 123.825 467.542 H 378.759 C 383.837 467.536 388.706 465.517 392.297 461.929 C 395.888 458.34 397.909 453.475 397.915 448.401 V 47.5737 C 397.909 42.499 395.888 37.6341 392.297 34.0458 C 388.706 30.4575 383.837 28.4388 378.759 28.4324 H 123.825 Z" stroke-linecap="round"/>
</g>
		<g transform="matrix(1 0 0 1 167.4195 -150.087)" id="Vector_12">
<path style="stroke: rgb(0,0,0); stroke-width: 1; stroke-dasharray: none; stroke-linecap: butt; stroke-dashoffset: 0; stroke-linejoin: miter; stroke-miterlimit: 4; is-custom-font: none; font-file-url: none; fill: rgb(62,66,80); fill-rule: nonzero; opacity: 1;" transform=" translate(-378.4195, -97.913)" d="M 381.26 67.127 H 375.579 C 372.897 67.127 370.723 69.2993 370.723 71.979 V 123.847 C 370.723 126.527 372.897 128.699 375.579 128.699 H 381.26 C 383.942 128.699 386.116 126.527 386.116 123.847 V 71.979 C 386.116 69.2993 383.942 67.127 381.26 67.127 Z" stroke-linecap="round"/>
</g>
		<g transform="matrix(1 0 0 1 -94.471 138.525)" id="Vector_13">
<path style="stroke: rgb(0,0,0); stroke-width: 1; stroke-dasharray: none; stroke-linecap: butt; stroke-dashoffset: 0; stroke-linejoin: miter; stroke-miterlimit: 4; is-custom-font: none; font-file-url: none; fill: rgb(164,164,164); fill-rule: nonzero; opacity: 1;" transform=" translate(-116.529, -386.525)" d="M 117.949 359.584 H 115.109 C 113.768 359.584 112.681 360.67 112.681 362.01 V 411.04 C 112.681 412.38 113.768 413.466 115.109 413.466 H 117.949 C 119.29 413.466 120.377 412.38 120.377 411.04 V 362.01 C 120.377 360.67 119.29 359.584 117.949 359.584 Z" stroke-linecap="round"/>
</g>
		<g transform="matrix(1 0 0 1 -94.471 177.0015)" id="Vector_14">
<path style="stroke: rgb(0,0,0); stroke-width: 1; stroke-dasharray: none; stroke-linecap: butt; stroke-dashoffset: 0; stroke-linejoin: miter; stroke-miterlimit: 4; is-custom-font: none; font-file-url: none; fill: rgb(164,164,164); fill-rule: nonzero; opacity: 1;" transform=" translate(-116.529, -425.0015)" d="M 117.949 421.156 H 115.109 C 113.768 421.156 112.681 422.242 112.681 423.582 V 426.421 C 112.681 427.761 113.768 428.847 115.109 428.847 H 117.949 C 119.29 428.847 120.377 427.761 120.377 426.421 V 423.582 C 120.377 422.242 119.29 421.156 117.949 421.156 Z" stroke-linecap="round"/>
</g>
		<g transform="matrix(1 0 0 1 40.3165 48.096)" id="Vector_15">
<path style="stroke: rgb(0,0,0); stroke-width: 1; stroke-dasharray: none; stroke-linecap: butt; stroke-dashoffset: 0; stroke-linejoin: miter; stroke-miterlimit: 4; is-custom-font: none; font-file-url: none; fill: rgb(78,79,80); fill-rule: nonzero; opacity: 1;" transform=" translate(-251.3165, -296.096)" d="M 401.509 292.457 H 101.124 V 299.735 H 401.509 V 292.457 Z" stroke-linecap="round"/>
</g>
		<g transform="matrix(1 0 0 1 39.3696 -26.941)" id="Vector_16">
<path style="stroke: rgb(0,0,0); stroke-width: 1; stroke-dasharray: none; stroke-linecap: butt; stroke-dashoffset: 0; stroke-linejoin: miter; stroke-miterlimit: 4; is-custom-font: none; font-file-url: none; fill: rgb(78,79,80); fill-rule: nonzero; opacity: 1;" transform=" translate(-250.3696, -221.059)" d="M 401.533 217.42 H 99.2061 V 224.698 H 401.533 V 217.42 Z" stroke-linecap="round"/>
</g>
		<g transform="matrix(1 0 0 1 128.8865 -1.9161)" id="Vector_17">
<path style="stroke: rgb(0,0,0); stroke-width: 1; stroke-dasharray: none; stroke-linecap: butt; stroke-dashoffset: 0; stroke-linejoin: miter; stroke-miterlimit: 4; is-custom-font: none; font-file-url: none; fill: rgb(204,45,48); fill-rule: nonzero; opacity: 1;" transform=" translate(-339.8865, -246.0838)" d="M 347 1.72266 H 332.773 C 326.068 1.72266 320.633 7.15349 320.633 13.8528 V 478.314 C 320.633 485.014 326.068 490.445 332.773 490.445 H 347 C 353.705 490.445 359.14 485.014 359.14 478.314 V 13.8528 C 359.14 7.15349 353.705 1.72266 347 1.72266 Z" stroke-linecap="round"/>
</g>
		<g transform="matrix(1 0 0 1 126.9685 0)" id="Vector_18">
<path style="stroke: rgb(0,0,0); stroke-width: 1; stroke-dasharray: none; stroke-linecap: butt; stroke-dashoffset: 0; stroke-linejoin: miter; stroke-miterlimit: 4; is-custom-font: none; font-file-url: none; fill: rgb(78,79,80); fill-rule: nonzero; opacity: 1;" transform=" translate(-337.9685, -248)" d="M 345.083 496 H 330.855 C 326.671 495.994 322.661 494.33 319.703 491.374 C 316.744 488.418 315.08 484.411 315.073 480.231 V 15.7691 C 315.08 11.5889 316.744 7.58166 319.703 4.62576 C 322.661 1.66986 326.671 0.00641638 330.855 0 L 345.083 0 C 349.266 0.00641638 353.276 1.66986 356.235 4.62576 C 359.193 7.58166 360.858 11.5889 360.864 15.7691 V 480.231 C 360.858 484.411 359.193 488.418 356.235 491.374 C 353.276 494.33 349.266 495.994 345.083 496 Z M 330.855 7.27806 C 328.601 7.27806 326.44 8.17266 324.846 9.76504 C 323.252 11.3574 322.357 13.5172 322.357 15.7691 V 480.231 C 322.357 482.483 323.252 484.643 324.846 486.235 C 326.44 487.827 328.601 488.722 330.855 488.722 H 345.083 C 347.336 488.722 349.498 487.827 351.091 486.235 C 352.685 484.643 353.58 482.483 353.58 480.231 V 15.7691 C 353.58 13.5172 352.685 11.3574 351.091 9.76504 C 349.498 8.17266 347.336 7.27806 345.083 7.27806 H 330.855 Z" stroke-linecap="round"/>
</g>
		<g transform="matrix(1 0 0 1 117.355 0.9701)" id="Vector_19">
<path style="stroke: rgb(0,0,0); stroke-width: 1; stroke-dasharray: none; stroke-linecap: butt; stroke-dashoffset: 0; stroke-linejoin: miter; stroke-miterlimit: 4; is-custom-font: none; font-file-url: none; fill: rgb(78,79,80); fill-rule: nonzero; opacity: 1;" transform=" translate(-328.355, -248.97)" d="M 329.569 7.49609 H 327.141 V 490.444 H 329.569 V 7.49609 Z" stroke-linecap="round"/>
</g>
		<g transform="matrix(1 0 0 1 125.051 0.9701)" id="Vector_20">
<path style="stroke: rgb(0,0,0); stroke-width: 1; stroke-dasharray: none; stroke-linecap: butt; stroke-dashoffset: 0; stroke-linejoin: miter; stroke-miterlimit: 4; is-custom-font: none; font-file-url: none; fill: rgb(43,15,43); fill-rule: nonzero; opacity: 0.35;" transform=" translate(-336.051, -248.97)" d="M 337.265 7.49609 H 334.837 V 490.444 H 337.265 V 7.49609 Z" stroke-linecap="round"/>
</g>
		<g transform="matrix(1 0 0 1 127.48 0.9701)" id="Vector_21">
<path style="stroke: rgb(0,0,0); stroke-width: 1; stroke-dasharray: none; stroke-linecap: butt; stroke-dashoffset: 0; stroke-linejoin: miter; stroke-miterlimit: 4; is-custom-font: none; font-file-url: none; fill: rgb(78,79,80); fill-rule: nonzero; opacity: 1;" transform=" translate(-338.48, -248.97)" d="M 339.694 7.49609 H 337.266 V 490.444 H 339.694 V 7.49609 Z" stroke-linecap="round"/>
</g>
		<g transform="matrix(1 0 0 1 135.176 0.9701)" id="Vector_22">
<path style="stroke: rgb(0,0,0); stroke-width: 1; stroke-dasharray: none; stroke-linecap: butt; stroke-dashoffset: 0; stroke-linejoin: miter; stroke-miterlimit: 4; is-custom-font: none; font-file-url: none; fill: rgb(78,79,80); fill-rule: nonzero; opacity: 1;" transform=" translate(-346.176, -248.97)" d="M 347.39 7.49609 H 344.962 V 490.444 H 347.39 V 7.49609 Z" stroke-linecap="round"/>
</g>
		<g transform="matrix(1 0 0 1 -182.011 1.6188)" id="Vector_23">
<path style="stroke: rgb(0,0,0); stroke-width: 1; stroke-dasharray: none; stroke-linecap: butt; stroke-dashoffset: 0; stroke-linejoin: miter; stroke-miterlimit: 4; is-custom-font: none; font-file-url: none; fill: rgb(227,182,94); fill-rule: nonzero; opacity: 1;" transform=" translate(-28.9891, -249.6188)" d="M 54.0211 438.478 V 38.1848 C 53.9764 31.5739 51.3216 25.2479 46.6341 20.5822 C 41.9466 15.9166 35.6053 13.2886 28.9891 13.2695 C 22.3561 13.2887 16.0002 15.9301 11.31 20.6167 C 6.61972 25.3032 3.97625 31.654 3.95703 38.2818 V 438.575 L 22.725 481.88 C 23.2563 483.095 24.1307 484.129 25.2411 484.855 C 26.3516 485.581 27.6499 485.968 28.9769 485.968 C 30.304 485.968 31.6023 485.581 32.7127 484.855 C 33.8232 484.129 34.6976 483.095 35.2289 481.88 L 54.0211 438.478 Z" stroke-linecap="round"/>
</g>
		<g transform="matrix(1 0 0 1 -181.9986 9.8635)" id="Vector_24">
<path style="stroke: rgb(0,0,0); stroke-width: 1; stroke-dasharray: none; stroke-linecap: butt; stroke-dashoffset: 0; stroke-linejoin: miter; stroke-miterlimit: 4; is-custom-font: none; font-file-url: none; fill: rgb(247,172,61); fill-rule: nonzero; opacity: 1;" transform=" translate(-29.0014, -257.8635)" d="M 54.0213 45.9734 V 446.267 L 38.2639 482.657 C 37.4794 484.46 36.1848 485.995 34.5393 487.073 C 32.8938 488.151 30.969 488.725 29.0014 488.725 C 27.0337 488.725 25.1089 488.151 23.4634 487.073 C 21.8179 485.995 20.5233 484.46 19.7388 482.657 L 3.98145 446.267 V 405.631 C 4.88362 405.544 5.77694 405.381 6.65218 405.146 C 15.2714 403.059 21.8754 395.684 25.1773 387.436 C 28.4793 379.187 29.1349 370.284 29.6448 361.477 C 33.4566 296.63 33.8694 231.637 32.6797 166.692 C 32.097 135.445 31.1744 104.077 35.1076 73.0963 C 36.9705 57.432 40.3864 41.9914 45.305 27.002 C 48.0484 29.3429 50.249 32.2524 51.7542 35.5285 C 53.2593 38.8046 54.0329 42.3687 54.0213 45.9734 Z" stroke-linecap="round"/>
</g>
		<g transform="matrix(1 0 0 1 -182.011 201.866)" id="Vector_25">
<path style="stroke: rgb(0,0,0); stroke-width: 1; stroke-dasharray: none; stroke-linecap: butt; stroke-dashoffset: 0; stroke-linejoin: miter; stroke-miterlimit: 4; is-custom-font: none; font-file-url: none; fill: rgb(238,195,166); fill-rule: nonzero; opacity: 1;" transform=" translate(-28.9891, -449.866)" d="M 54.0211 434.258 V 438.48 L 34.9618 482.415 C 34.4579 483.58 33.6239 484.572 32.5626 485.269 C 31.5013 485.965 30.259 486.337 28.9891 486.337 C 27.7191 486.337 26.4769 485.965 25.4156 485.269 C 24.3543 484.572 23.5203 483.58 23.0163 482.415 L 3.95703 438.48 V 434.258 L 16.9951 423.099 L 28.9405 413.395 L 40.886 423.099 L 54.0211 434.258 Z" stroke-linecap="round"/>
</g>
		<g transform="matrix(1 0 0 1 -176.1952 202.0575)" id="Vector_26">
<path style="stroke: rgb(0,0,0); stroke-width: 1; stroke-dasharray: none; stroke-linecap: butt; stroke-dashoffset: 0; stroke-linejoin: miter; stroke-miterlimit: 4; is-custom-font: none; font-file-url: none; fill: rgb(229,168,129); fill-rule: nonzero; opacity: 1;" transform=" translate(-34.8048, -450.0575)" d="M 50.1858 434.258 V 438.479 L 30.9323 482.778 C 30.4403 483.893 29.6344 484.841 28.6128 485.507 C 27.5911 486.173 26.3977 486.527 25.178 486.527 C 23.9584 486.527 22.765 486.173 21.7433 485.507 C 20.7216 484.841 19.9158 483.893 19.4238 482.778 L 38.6774 438.382 V 434.258 L 25.5908 423.098 L 19.4238 418.246 L 25.2023 413.588 L 37.1478 423.292 L 50.1858 434.258 Z" stroke-linecap="round"/>
</g>
		<g transform="matrix(1 0 0 1 -182.011 -157.7883)" id="Vector_27">
<path style="stroke: rgb(0,0,0); stroke-width: 1; stroke-dasharray: none; stroke-linecap: butt; stroke-dashoffset: 0; stroke-linejoin: miter; stroke-miterlimit: 4; is-custom-font: none; font-file-url: none; fill: rgb(255,255,255); fill-rule: nonzero; opacity: 1;" transform=" translate(-28.9891, -90.2117)" d="M 3.95703 105.605 H 54.0211 V 74.8184 H 3.95703 V 105.605 Z" stroke-linecap="round"/>
</g>
		<g transform="matrix(1 0 0 1 -169.3127 -153.9311)" id="Vector_28">
<path style="stroke: rgb(0,0,0); stroke-width: 1; stroke-dasharray: none; stroke-linecap: butt; stroke-dashoffset: 0; stroke-linejoin: miter; stroke-miterlimit: 4; is-custom-font: none; font-file-url: none; fill: rgb(102,138,168); fill-rule: nonzero; opacity: 1;" transform=" translate(-41.6873, -94.0689)" d="M 50.185 78.6758 V 109.462 H 33.1895 V 78.6758 H 50.185 Z" stroke-linecap="round"/>
</g>
		<g transform="matrix(1 0 0 1 -182.3991 176.764)" id="Vector_29">
<path style="stroke: rgb(0,0,0); stroke-width: 1; stroke-dasharray: none; stroke-linecap: butt; stroke-dashoffset: 0; stroke-linejoin: miter; stroke-miterlimit: 4; is-custom-font: none; font-file-url: none; fill: rgb(78,79,80); fill-rule: nonzero; opacity: 1;" transform=" translate(-28.6009, -424.764)" d="M 50.2824 435.544 L 35.5205 423.657 C 33.5761 422.106 31.1618 421.261 28.6738 421.261 C 26.1857 421.261 23.7714 422.106 21.827 423.657 L 7.0651 435.544 L 2.42773 429.867 L 17.1896 417.98 C 20.4298 415.393 24.4537 413.984 28.6009 413.984 C 32.7481 413.984 36.7721 415.393 40.0122 417.98 L 54.7741 429.867 L 50.2824 435.544 Z" stroke-linecap="round"/>
</g>
		<g transform="matrix(1 0 0 1 -182.3263 -140.455)" id="Vector_30">
<path style="stroke: rgb(0,0,0); stroke-width: 1; stroke-dasharray: none; stroke-linecap: butt; stroke-dashoffset: 0; stroke-linejoin: miter; stroke-miterlimit: 4; is-custom-font: none; font-file-url: none; fill: rgb(78,79,80); fill-rule: nonzero; opacity: 1;" transform=" translate(-28.6737, -107.545)" d="M 53.7057 103.906 H 3.6416 V 111.184 H 53.7057 V 103.906 Z" stroke-linecap="round"/>
</g>
		<g transform="matrix(1 0 0 1 -182.1566 -203.9218)" id="Vector_31">
<path style="stroke: rgb(0,0,0); stroke-width: 1; stroke-dasharray: none; stroke-linecap: butt; stroke-dashoffset: 0; stroke-linejoin: miter; stroke-miterlimit: 4; is-custom-font: none; font-file-url: none; fill: rgb(204,45,48); fill-rule: nonzero; opacity: 1;" transform=" translate(-28.8434, -44.0782)" d="M 53.7298 38.2827 V 74.8185 H 3.95703 V 38.2827 C 3.97648 32.0883 6.28456 26.1192 10.4384 21.521 C 14.5922 16.9227 20.2991 14.0191 26.464 13.3674 C 27.2081 13.328 27.9537 13.328 28.6977 13.3674 C 29.5394 13.3674 30.3487 13.3674 31.1257 13.3674 C 37.3081 13.9967 43.0385 16.8906 47.2123 21.4911 C 51.3861 26.0916 53.7078 32.0732 53.7298 38.2827 Z" stroke-linecap="round"/>
</g>
		<g transform="matrix(1 0 0 1 -182.1566 -200.0644)" id="Vector_32">
<path style="stroke: rgb(0,0,0); stroke-width: 1; stroke-dasharray: none; stroke-linecap: butt; stroke-dashoffset: 0; stroke-linejoin: miter; stroke-miterlimit: 4; is-custom-font: none; font-file-url: none; fill: rgb(183,32,47); fill-rule: nonzero; opacity: 1;" transform=" translate(-28.8434, -47.9357)" d="M 53.7298 42.1158 V 78.676 H 3.95703 V 64.1198 C 3.95703 65.3571 17.2379 63.1252 18.5247 62.7613 C 22.3169 61.8336 25.7744 59.8656 28.5071 57.0794 C 31.2397 54.2931 33.139 50.7993 33.9906 46.9921 C 35.124 40.7913 34.2745 34.3912 31.5627 28.6999 C 30.543 26.2739 26.7068 16.9337 23.4291 17.7828 C 24.4266 17.5268 25.4407 17.3403 26.464 17.2248 C 27.2081 17.1855 27.9537 17.1855 28.6977 17.2248 C 29.5394 17.2248 30.3487 17.2248 31.1257 17.2248 C 37.3039 17.8537 43.031 20.7441 47.2042 25.3395 C 51.3775 29.9349 53.7018 35.9105 53.7298 42.1158 Z" stroke-linecap="round"/>
</g>
		<g transform="matrix(1 0 0 1 -182.326 2.0497)" id="Vector_33">
<path style="stroke: rgb(0,0,0); stroke-width: 1; stroke-dasharray: none; stroke-linecap: butt; stroke-dashoffset: 0; stroke-linejoin: miter; stroke-miterlimit: 4; is-custom-font: none; font-file-url: none; fill: rgb(78,79,80); fill-rule: nonzero; opacity: 1;" transform=" translate(-28.6741, -250.0496)" d="M 28.6741 490.468 C 26.7513 490.486 24.8665 489.933 23.2586 488.879 C 21.6507 487.825 20.392 486.318 19.6422 484.549 L 6.23995 453.665 C 2.10404 444.159 -0.0203528 433.9 0.00014696 423.534 V 38.2822 C 0.00014696 30.6834 3.02114 23.3958 8.39855 18.0226 C 13.776 12.6495 21.0693 9.63086 28.6741 9.63086 C 36.2789 9.63086 43.5722 12.6495 48.9497 18.0226 C 54.3271 23.3958 57.3481 30.6834 57.3481 38.2822 V 423.534 C 57.3303 433.909 55.1645 444.168 50.9869 453.665 L 37.5846 484.573 C 36.8391 486.319 35.5976 487.808 34.0138 488.855 C 32.4301 489.903 30.5736 490.464 28.6741 490.468 Z M 28.6741 16.9817 C 23.0156 16.9881 17.5897 19.2319 13.5817 23.2231 C 9.57377 27.2142 7.30962 32.6282 7.28396 38.2822 V 423.534 C 7.27147 432.9 9.1975 442.168 12.9411 450.754 L 26.3433 481.662 C 26.5399 482.12 26.8667 482.51 27.2831 482.785 C 27.6996 483.059 28.1874 483.205 28.6862 483.205 C 29.1851 483.205 29.6729 483.059 30.0894 482.785 C 30.5058 482.51 30.8326 482.12 31.0292 481.662 L 44.4314 450.754 C 48.1716 442.167 50.0975 432.9 50.0885 423.534 V 38.2822 C 50.0628 32.624 47.7954 27.2064 43.7822 23.2145 C 39.7689 19.2227 34.3368 16.9816 28.6741 16.9817 Z" stroke-linecap="round"/>
</g>
		<g transform="matrix(1 0 0 1 -182.3263 -171.2418)" id="Vector_34">
<path style="stroke: rgb(0,0,0); stroke-width: 1; stroke-dasharray: none; stroke-linecap: butt; stroke-dashoffset: 0; stroke-linejoin: miter; stroke-miterlimit: 4; is-custom-font: none; font-file-url: none; fill: rgb(78,79,80); fill-rule: nonzero; opacity: 1;" transform=" translate(-28.6737, -76.7582)" d="M 53.7057 73.1191 H 3.6416 V 80.3972 H 53.7057 V 73.1191 Z" stroke-linecap="round"/>
</g>
		<g transform="matrix(1 0 0 1 -170.5995 10.5775)" id="Vector_35">
<path style="stroke: rgb(0,0,0); stroke-width: 1; stroke-dasharray: none; stroke-linecap: butt; stroke-dashoffset: 0; stroke-linejoin: miter; stroke-miterlimit: 4; is-custom-font: none; font-file-url: none; fill: rgb(78,79,80); fill-rule: nonzero; opacity: 1;" transform=" translate(-40.4005, -258.5775)" d="M 41.6145 121.01 H 39.1865 V 396.145 H 41.6145 V 121.01 Z" stroke-linecap="round"/>
</g>
		<g transform="matrix(1 0 0 1 -182.1561 10.5775)" id="Vector_36">
<path style="stroke: rgb(0,0,0); stroke-width: 1; stroke-dasharray: none; stroke-linecap: butt; stroke-dashoffset: 0; stroke-linejoin: miter; stroke-miterlimit: 4; is-custom-font: none; font-file-url: none; fill: rgb(78,79,80); fill-rule: nonzero; opacity: 1;" transform=" translate(-28.8438, -258.5775)" d="M 30.0578 121.01 H 27.6299 V 396.145 H 30.0578 V 121.01 Z" stroke-linecap="round"/>
</g>
		<g transform="matrix(1 0 0 1 -193.7128 10.5775)" id="Vector_37">
<path style="stroke: rgb(0,0,0); stroke-width: 1; stroke-dasharray: none; stroke-linecap: butt; stroke-dashoffset: 0; stroke-linejoin: miter; stroke-miterlimit: 4; is-custom-font: none; font-file-url: none; fill: rgb(78,79,80); fill-rule: nonzero; opacity: 1;" transform=" translate(-17.2872, -258.5775)" d="M 18.5012 121.01 H 16.0732 V 396.145 H 18.5012 V 121.01 Z" stroke-linecap="round"/>
</g>
</g>
</g>
</svg>